<svg width="33" height="33" viewBox="0 0 33 33" fill="none" xmlns="http://www.w3.org/2000/svg">
<path d="M30.5024 16.2744L17.2283 3.00998C17.1327 2.91422 17.0192 2.83824 16.8942 2.78641C16.7693 2.73457 16.6353 2.70789 16.5 2.70789C16.3647 2.70789 16.2307 2.73457 16.1057 2.78641C15.9808 2.83824 15.8673 2.91422 15.7717 3.00998L2.49755 16.2744C2.11083 16.6612 1.89169 17.1865 1.89169 17.7343C1.89169 18.8719 2.8166 19.7968 3.95419 19.7968H5.35283V29.2617C5.35283 29.8322 5.81367 30.293 6.38408 30.293H14.4375V23.0742H18.0469V30.293H26.6159C27.1863 30.293 27.6472 29.8322 27.6472 29.2617V19.7968H29.0458C29.5936 19.7968 30.1189 19.5809 30.5057 19.1909C31.3081 18.3853 31.3081 17.0801 30.5024 16.2744Z" fill="#2D9CDB"/>
</svg>
