<svg width="33" height="33" viewBox="0 0 33 33" fill="none" xmlns="http://www.w3.org/2000/svg">
<g opacity="0.4">
<path d="M15.8304 2.81597C15.6744 2.75757 15.5066 2.73781 15.3413 2.75839C15.1761 2.77896 15.0183 2.83926 14.8814 2.93412C14.7445 3.02899 14.6326 3.15559 14.5553 3.30311C14.478 3.45063 14.4376 3.61468 14.4375 3.78122V20.4558C13.4847 19.693 12.3051 19.2687 11.0847 19.2499C9.86418 19.2311 8.67214 19.6189 7.69627 20.3521C6.7204 21.0853 6.01616 22.1223 5.69446 23.2997C5.37276 24.4772 5.45188 25.7282 5.91937 26.8557C6.38686 27.9833 7.21614 28.9233 8.27661 29.5277C9.33708 30.1321 10.5685 30.3665 11.7769 30.1941C12.9852 30.0217 14.1019 29.4523 14.9511 28.5754C15.8002 27.6985 16.3335 26.5641 16.467 25.3508C16.4888 25.2669 16.4999 25.1805 16.5 25.0937V12.144L26.1071 15.7465C26.2631 15.8049 26.4309 15.8246 26.5962 15.8041C26.7614 15.7835 26.9193 15.7232 27.0561 15.6283C27.193 15.5335 27.3049 15.4069 27.3822 15.2593C27.4595 15.1118 27.4999 14.9478 27.5 14.7812V10.2891C27.5002 9.37918 27.2227 8.49087 26.7045 7.74292C26.1863 6.99498 25.4521 6.42305 24.6001 6.1036L15.8304 2.81597Z" fill="#2D9CDB"/>
</g>
</svg>
