<svg width="33" height="33" viewBox="0 0 33 33" fill="none" xmlns="http://www.w3.org/2000/svg">
<g opacity="0.4">
<path d="M12.364 5.48351C11.9458 5.24465 11.4723 5.11979 10.9907 5.12141C10.5091 5.12304 10.0364 5.2511 9.61989 5.49278C9.20336 5.73447 8.85759 6.08129 8.61718 6.49857C8.37677 6.91585 8.25016 7.38894 8.25 7.87051V25.1323C8.25016 25.6138 8.37677 26.0869 8.61718 26.5042C8.85759 26.9215 9.20336 27.2683 9.61989 27.51C10.0364 27.7517 10.5091 27.8797 10.9907 27.8814C11.4723 27.883 11.9458 27.7581 12.364 27.5193L27.467 18.887C27.8876 18.6464 28.2372 18.2989 28.4803 17.8797C28.7234 17.4606 28.8514 16.9846 28.8514 16.5C28.8514 16.0154 28.7234 15.5395 28.4803 15.1203C28.2372 14.7011 27.8876 14.3536 27.467 14.113L12.364 5.48351Z" fill="#2D9CDB"/>
</g>
</svg>
