<svg width="35" height="35" viewBox="0 0 35 35" fill="none" xmlns="http://www.w3.org/2000/svg">
<g opacity="0.4">
<path d="M5.83333 8.75002C5.83333 8.36325 5.98697 7.99231 6.26046 7.71882C6.53396 7.44533 6.90489 7.29169 7.29166 7.29169H27.7083C28.0951 7.29169 28.466 7.44533 28.7395 7.71882C29.013 7.99231 29.1667 8.36325 29.1667 8.75002C29.1667 9.13679 29.013 9.50773 28.7395 9.78122C28.466 10.0547 28.0951 10.2084 27.7083 10.2084H7.29166C6.90489 10.2084 6.53396 10.0547 6.26046 9.78122C5.98697 9.50773 5.83333 9.13679 5.83333 8.75002ZM5.83333 26.25C5.83333 25.8632 5.98697 25.4923 6.26046 25.2188C6.53396 24.9453 6.90489 24.7917 7.29166 24.7917H27.7083C28.0951 24.7917 28.466 24.9453 28.7395 25.2188C29.013 25.4923 29.1667 25.8632 29.1667 26.25C29.1667 26.6368 29.013 27.0077 28.7395 27.2812C28.466 27.5547 28.0951 27.7084 27.7083 27.7084H7.29166C6.90489 27.7084 6.53396 27.5547 6.26046 27.2812C5.98697 27.0077 5.83333 26.6368 5.83333 26.25ZM16.0417 16.0417C15.6549 16.0417 15.284 16.1953 15.0105 16.4688C14.737 16.7423 14.5833 17.1132 14.5833 17.5C14.5833 17.8868 14.737 18.2577 15.0105 18.5312C15.284 18.8047 15.6549 18.9584 16.0417 18.9584H27.7083C28.0951 18.9584 28.466 18.8047 28.7395 18.5312C29.013 18.2577 29.1667 17.8868 29.1667 17.5C29.1667 17.1132 29.013 16.7423 28.7395 16.4688C28.466 16.1953 28.0951 16.0417 27.7083 16.0417H16.0417Z" fill="#2D9CDB"/>
</g>
</svg>
