<svg width="22" height="22" viewBox="0 0 22 22" fill="none" xmlns="http://www.w3.org/2000/svg">
<rect x="2.7" y="2.7" width="18.6" height="18.6" rx="2.3" stroke="#875DE3" stroke-width="1.4"/>
<path d="M6.21024 14.9999H7.26421L7.6733 12.5284H10.3693L9.96024 14.9999H11.0171L11.983 9.18176H10.9261L10.5171 11.6448H7.82103L8.23012 9.18176H7.17614L6.21024 14.9999Z" fill="#875DE3"/>
<path d="M14.3234 14.9999C16.0961 14.9999 17.295 13.9346 17.5904 12.142C17.8972 10.3039 17.0052 9.18176 15.2722 9.18176H13.2893L12.3234 14.9999H14.3234ZM13.5279 14.088L14.1927 10.0937H15.116C16.2978 10.0937 16.7864 10.7215 16.5648 12.0255C16.3404 13.392 15.5876 14.088 14.3773 14.088H13.5279Z" fill="#875DE3"/>
<path fill-rule="evenodd" clip-rule="evenodd" d="M5.97427 15.2L7.00659 8.98181H8.46606L8.05697 11.4449H10.3475L10.7566 8.98181H12.2189L11.1866 15.2H9.72439L10.1335 12.7284H7.8429L7.43381 15.2H5.97427ZM7.67328 12.5284H10.3693L9.96021 15H11.017L11.9829 9.18181H10.9261L10.517 11.6449H7.82101L8.2301 9.18181H7.17612L6.21021 15H7.26419L7.67328 12.5284ZM13.2892 9.18181H15.2722C17.0052 9.18181 17.8972 10.304 17.5904 12.142C17.2949 13.9347 16.0961 15 14.3233 15H12.3233L13.2892 9.18181ZM17.7877 12.1746C17.6339 13.1077 17.242 13.8672 16.6428 14.3935C16.043 14.9204 15.2511 15.2 14.3233 15.2H12.0874L13.1197 8.98181H15.2722C16.1816 8.98181 16.9041 9.27767 17.3534 9.84902C17.8005 10.4176 17.9468 11.2209 17.7877 12.1746ZM16.5648 12.0256C16.7864 10.7216 16.2978 10.0937 15.116 10.0937H14.1927L13.5279 14.0881H14.3773C15.5875 14.0881 16.3404 13.392 16.5648 12.0256ZM13.7639 13.8881H14.3773C14.9424 13.8881 15.3806 13.7267 15.7039 13.4234C16.0297 13.1177 16.2599 12.648 16.3675 11.9931L16.3676 11.9921C16.4748 11.3612 16.4001 10.9462 16.2072 10.6914C16.0187 10.4424 15.6764 10.2937 15.116 10.2937H14.3621L13.7639 13.8881Z" fill="#875DE3"/>
</svg>
