<svg width="33" height="33" viewBox="0 0 33 33" fill="none" xmlns="http://www.w3.org/2000/svg">
<g opacity="0.4">
<path d="M8.25 4.125C7.5625 4.125 7.0125 4.4 6.6 4.95L4.8125 7.15C4.4 7.7 4.125 8.25 4.125 8.9375V26.125C4.125 27.6375 5.3625 28.875 6.875 28.875H18.2875C18.0125 28.05 17.875 27.0875 17.875 26.125C17.875 21.5875 21.5875 17.875 26.125 17.875C27.0875 17.875 28.05 18.0125 28.875 18.2875V8.9375C28.875 8.25 28.6 7.7 28.1875 7.15L26.2625 4.8125C25.9875 4.4 25.4375 4.125 24.75 4.125H8.25ZM8.1125 5.5H24.6125L25.85 6.875H7.0125L8.1125 5.5ZM8.25 20.625H16.5V24.75H8.25V20.625ZM29.2875 21.725L24.3375 26.675L22.1375 24.475L20.625 26.125L24.475 30.25L31.075 23.65L29.2875 21.725Z" fill="#2D9CDB"/>
</g>
</svg>
