<svg width="19" height="17" viewBox="0 0 19 17" fill="none" xmlns="http://www.w3.org/2000/svg">
<path fill-rule="evenodd" clip-rule="evenodd" d="M18.25 8.50004C18.25 8.79012 18.1348 9.06832 17.9297 9.27344C17.7245 9.47856 17.4463 9.59379 17.1563 9.59379H4.48406L9.18063 14.2882C9.28232 14.3899 9.36299 14.5106 9.41802 14.6434C9.47306 14.7763 9.50138 14.9187 9.50138 15.0625C9.50138 15.2064 9.47306 15.3488 9.41802 15.4816C9.36299 15.6145 9.28232 15.7352 9.18063 15.8369C9.07893 15.9386 8.95821 16.0193 8.82534 16.0743C8.69247 16.1293 8.55007 16.1577 8.40625 16.1577C8.26244 16.1577 8.12003 16.1293 7.98716 16.0743C7.8543 16.0193 7.73357 15.9386 7.63188 15.8369L1.06938 9.27441C0.96752 9.17281 0.886707 9.05212 0.831568 8.91924C0.776429 8.78636 0.748047 8.64391 0.748047 8.50004C0.748047 8.35617 0.776429 8.21372 0.831568 8.08084C0.886707 7.94796 0.96752 7.82726 1.06938 7.72566L7.63188 1.16316C7.83725 0.957787 8.11581 0.842407 8.40625 0.842407C8.6967 0.842407 8.97525 0.957787 9.18063 1.16316C9.386 1.36854 9.50138 1.64709 9.50138 1.93754C9.50138 2.22799 9.386 2.50654 9.18063 2.71191L4.48406 7.40629H17.1563C17.4463 7.40629 17.7245 7.52152 17.9297 7.72664C18.1348 7.93176 18.25 8.20996 18.25 8.50004Z" fill="black"/>
</svg>
